<?xml version="1.0" encoding="UTF-8" standalone="no"?>
<!-- Created with Inkscape (http://www.inkscape.org/) -->
<svg
   xmlns:dc="http://purl.org/dc/elements/1.1/"
   xmlns:cc="http://creativecommons.org/ns#"
   xmlns:rdf="http://www.w3.org/1999/02/22-rdf-syntax-ns#"
   xmlns:svg="http://www.w3.org/2000/svg"
   xmlns="http://www.w3.org/2000/svg"
   xmlns:sodipodi="http://sodipodi.sourceforge.net/DTD/sodipodi-0.dtd"
   xmlns:inkscape="http://www.inkscape.org/namespaces/inkscape"
   width="800"
   height="480"
   id="svg2"
   sodipodi:version="0.32"
   inkscape:version="0.46"
   version="1.0"
   sodipodi:docname="guns_walk2.svg"
   inkscape:output_extension="org.inkscape.output.svg.inkscape">
  <defs
     id="defs4">
    <inkscape:perspective
       sodipodi:type="inkscape:persp3d"
       inkscape:vp_x="0 : 526.18109 : 1"
       inkscape:vp_y="0 : 1000 : 0"
       inkscape:vp_z="744.09448 : 526.18109 : 1"
       inkscape:persp3d-origin="372.04724 : 350.78739 : 1"
       id="perspective10" />
  </defs>
  <sodipodi:namedview
     id="base"
     pagecolor="#ffffff"
     bordercolor="#666666"
     borderopacity="1.0"
     gridtolerance="10000"
     guidetolerance="10"
     objecttolerance="10"
     inkscape:pageopacity="0.0"
     inkscape:pageshadow="2"
     inkscape:zoom="1"
     inkscape:cx="392.63671"
     inkscape:cy="147.32622"
     inkscape:document-units="px"
     inkscape:current-layer="layer1"
     showgrid="false"
     inkscape:window-width="1278"
     inkscape:window-height="722"
     inkscape:window-x="0"
     inkscape:window-y="25" />
  <metadata
     id="metadata7">
    <rdf:RDF>
      <cc:Work
         rdf:about="">
        <dc:format>image/svg+xml</dc:format>
        <dc:type
           rdf:resource="http://purl.org/dc/dcmitype/StillImage" />
      </cc:Work>
    </rdf:RDF>
  </metadata>
  <g
     inkscape:label="Layer 1"
     inkscape:groupmode="layer"
     id="layer1">
    <path
       style="fill:#0000ff;fill-rule:evenodd;stroke:none;stroke-width:1px;stroke-linecap:butt;stroke-linejoin:miter;stroke-opacity:1"
       d="M 587.67081,480.25473 L 498.03825,341.99656 L 503.49346,339.74897 L 508.12754,342.0412 L 673.88647,481.81799 L 587.67081,480.25473 z"
       id="path2383"
       sodipodi:nodetypes="cccccc" />
    <path
       style="opacity:0.35092444;fill:#000080;fill-rule:evenodd;stroke:none;stroke-width:1px;stroke-linecap:butt;stroke-linejoin:miter;stroke-opacity:1"
       d="M 503.35075,339.76442 L 529.24361,367.71085 L 539.51147,368.60371 L 508.35075,342.17514 L 503.35075,339.76442 z"
       id="path3176"
       sodipodi:nodetypes="ccccc" />
    <path
       style="fill:#000080;fill-rule:evenodd;stroke:none;stroke-width:1px;stroke-linecap:butt;stroke-linejoin:miter;stroke-opacity:1"
       d="M 498.17218,341.81799 L 498.17218,384.67513 L 538.23531,480.24706 L 587.71414,480.14432 L 498.17218,341.81799 z"
       id="path2385"
       sodipodi:nodetypes="ccccc" />
    <path
       style="fill:#000080;fill-rule:evenodd;stroke:none;stroke-width:1px;stroke-linecap:butt;stroke-linejoin:miter;stroke-opacity:1"
       d="M 528.42472,387.16956 L 530.52687,363.11 L 541.93111,370.13682 L 548.17218,416.10371 L 528.42472,387.16956 z"
       id="path2387"
       sodipodi:nodetypes="ccccc" />
    <path
       style="fill:#00112b;fill-rule:evenodd;stroke:none;stroke-width:1px;stroke-linecap:butt;stroke-linejoin:miter;stroke-opacity:1"
       d="M 547.94026,415.99219 L 573.55611,411.216 L 592.33468,412.24559 L 577.73977,370.28279 L 541.37428,370.28279 L 547.94026,415.99219 z"
       id="path2389"
       sodipodi:nodetypes="cccccc" />
    <path
       style="fill:#000000;fill-rule:evenodd;stroke:none;stroke-width:1px;stroke-linecap:butt;stroke-linejoin:miter;stroke-opacity:1"
       d="M 394.0066,481.46085 L 493.39203,418.77011 L 496.42248,396.54676 L 500.96817,367.75741 L 506.69733,376.31833 L 505.00878,401.59752 L 513.09,418.77011 L 517.16388,429.04758 L 518.94433,433.65454 L 510.56462,439.47824 L 468.19333,480.68529 L 394.0066,481.46085 z"
       id="path2384"
       sodipodi:nodetypes="cccccccccccc" />
    <path
       style="fill:#800080;fill-rule:evenodd;stroke:none;stroke-width:1px;stroke-linecap:butt;stroke-linejoin:miter;stroke-opacity:1"
       d="M 402.81503,479.31799 L 494.60075,420.03228 L 501.38646,371.10371 L 504.2436,373.96085 L 501.38646,397.88942 L 499.60075,399.31799 L 501.02932,401.10371 L 500.67218,421.46085 L 497.10075,421.46085 L 497.45789,424.31799 L 479.24361,441.10371 L 443.88646,480.03228 L 402.81503,479.31799 z"
       id="path2386"
       sodipodi:nodetypes="ccccccccccccc" />
    <path
       style="fill:#00002a;fill-opacity:1;fill-rule:evenodd;stroke:none;stroke-width:1px;stroke-linecap:butt;stroke-linejoin:miter;stroke-opacity:1"
       d="M 506.02932,406.46085 L 511.7436,417.53228 L 516.38646,428.96085 L 512.45789,430.38942 L 510.67218,425.74656 L 504.95789,421.46085 L 506.02932,406.46085 z"
       id="path2388" />
    <path
       style="opacity:0.32051284;fill:#ffcc00;fill-opacity:1;fill-rule:evenodd;stroke:none;stroke-width:0.39894184px;stroke-linecap:butt;stroke-linejoin:miter;stroke-opacity:1"
       d="M 379.82693,255.3584 L 384.92881,227.68378 L 416.95734,227.2827 L 422.34267,255.3584 L 415.05426,237.71082 L 389.94973,237.30973 L 380.23184,254.95732 L 379.82693,254.95732 L 379.82693,255.3584 z"
       id="path2466" />
    <path
       id="path2468"
       d="M 379.82554,255.91718 L 384.92777,283.4341 L 416.95838,283.4341 L 422.34406,255.91718 L 415.05516,273.22063 L 389.949,273.61389 L 380.23048,256.31044 L 379.82554,256.31044 L 379.82554,255.91718 z"
       style="opacity:0.32051284;fill:#ffcc00;fill-opacity:1;fill-rule:evenodd;stroke:none;stroke-width:0.39504597px;stroke-linecap:butt;stroke-linejoin:miter;stroke-opacity:1" />
    <path
       style="fill:#000000;fill-rule:evenodd;stroke:none;stroke-width:1px;stroke-linecap:butt;stroke-linejoin:miter;stroke-opacity:1"
       d="M 506.52401,400.58737 L 549.45549,477.35897 L 588.34637,479.37927 L 538.84889,479.37927 L 506.52401,400.58737 z"
       id="path2390"
       sodipodi:nodetypes="ccccc" />
    <path
       style="opacity:0.56302526;fill:#000080;fill-rule:evenodd;stroke:none;stroke-width:1px;stroke-linecap:butt;stroke-linejoin:miter;stroke-opacity:1"
       d="M 549.09836,415.85695 L 575.32266,412.86492 L 589.86159,418.26504 L 670.70967,480.1242 L 590.77984,412.46936 L 574.21464,411.40757 L 549.09836,415.85695 z"
       id="path2392"
       sodipodi:nodetypes="ccccccc" />
    <path
       style="fill:#0000ff;fill-rule:evenodd;stroke:none;stroke-width:1px;stroke-linecap:butt;stroke-linejoin:miter;stroke-opacity:1"
       d="M 530.2626,363.21172 L 541.37427,370.28279 L 578.24484,370.28279 L 548.95042,363.21172 L 530.2626,363.21172 z"
       id="path3164" />
    <path
       style="opacity:1;fill:#000000;fill-rule:evenodd;stroke:none;stroke-width:1px;stroke-linecap:butt;stroke-linejoin:miter;stroke-opacity:1"
       d="M 0,480.33693 L 0.49447,241.37873 L 28.97689,483.19089 L 401,470.71574 L 771.13657,483.28425 L 800.79577,241.85519 L 800.99997,480.71574 L 0.24239,480.33693 L 0,480.33693 z"
       id="path3166"
       sodipodi:nodetypes="cccccccc" />
    <path
       style="opacity:1;fill:#000000;fill-rule:evenodd;stroke:none;stroke-width:1px;stroke-linecap:butt;stroke-linejoin:miter;stroke-opacity:1"
       d="M -0.9999999,0.7157433 L 399,30.715743 L 798.99997,0.7157433 L -0.9999999,0.7157433 z"
       id="path3168"
       sodipodi:nodetypes="cccc" />
    <path
       style="fill:#00ffff;fill-rule:evenodd;stroke:#000000;stroke-width:1px;stroke-linecap:butt;stroke-linejoin:miter;stroke-opacity:1"
       d="M 542.63646,371.46085 L 576.74361,370.92513 L 589.06504,408.42513 L 547.81504,410.74656 L 542.63646,371.46085 z"
       id="path3178" />
    <path
       style="opacity:0.23109245;fill:#005544;fill-rule:evenodd;stroke:none;stroke-width:1px;stroke-linecap:butt;stroke-linejoin:miter;stroke-opacity:1"
       d="M 543.48468,375.65728 L 578.52931,377.57692 L 576.38646,371.19299 L 542.99361,371.63942 L 543.48468,375.65728 z"
       id="path3180"
       sodipodi:nodetypes="ccccc" />
    <path
       style="opacity:0.83613443;fill:#37abc8;fill-rule:evenodd;stroke:none;stroke-width:1px;stroke-linecap:butt;stroke-linejoin:miter;stroke-opacity:1"
       d="M 547.10075,401.28228 L 548.17218,410.21085 L 588.46236,407.95638 L 552.19004,408.15728 L 547.10075,401.28228 z"
       id="path3182"
       sodipodi:nodetypes="ccccc" />
    <path
       style="opacity:0.11344539;fill:#0b2228;fill-rule:evenodd;stroke:none;stroke-width:1px;stroke-linecap:butt;stroke-linejoin:miter;stroke-opacity:1"
       d="M 572.689,411.19397 L 634.81337,476.60135 L 668.65347,478.62165 L 592.13444,412.45666 L 572.689,411.19397 z"
       id="path3184"
       sodipodi:nodetypes="ccccc" />
  </g>
</svg>
